<svg width="255" height="255" viewBox="0 0 255 255" fill="none" xmlns="http://www.w3.org/2000/svg">
<path d="M127.5 21.25C68.85 21.25 21.25 68.85 21.25 127.5C21.25 186.15 68.85 233.75 127.5 233.75C186.15 233.75 233.75 186.15 233.75 127.5C233.75 68.85 186.15 21.25 127.5 21.25ZM127.5 212.5C80.6438 212.5 42.5 174.356 42.5 127.5C42.5 80.6438 80.6438 42.5 127.5 42.5C174.356 42.5 212.5 80.6438 212.5 127.5C212.5 174.356 174.356 212.5 127.5 212.5ZM176.269 80.5375L106.25 150.556L78.7312 123.144L63.75 138.125L106.25 180.625L191.25 95.625L176.269 80.5375Z" fill="#3E6AE1"/>
</svg>
